<mxfile host="app.diagrams.net" modified="2021-07-10T17:40:55.736Z" agent="5.0 (Windows NT 10.0; Win64; x64) AppleWebKit/537.36 (KHTML, like Gecko) Chrome/91.0.4472.124 Safari/537.36" etag="WScsHAc418pJLYUWnbcV" version="14.8.0" type="github">
  <diagram id="QCRtVXhzJN2AWh_LGw6S" name="Page-1">
    <mxGraphModel dx="2272" dy="794" grid="1" gridSize="10" guides="1" tooltips="1" connect="1" arrows="1" fold="1" page="1" pageScale="1" pageWidth="850" pageHeight="1100" math="0" shadow="0">
      <root>
        <mxCell id="0" />
        <mxCell id="1" parent="0" />
        <mxCell id="H3QQZvvAGUR-z7Z-Pk0n-115" value="" style="endArrow=none;html=1;exitX=1.01;exitY=0.669;exitDx=0;exitDy=0;exitPerimeter=0;" edge="1" parent="1" source="H3QQZvvAGUR-z7Z-Pk0n-14">
          <mxGeometry width="50" height="50" relative="1" as="geometry">
            <mxPoint x="600" y="1370" as="sourcePoint" />
            <mxPoint x="660" y="1370" as="targetPoint" />
          </mxGeometry>
        </mxCell>
        <mxCell id="H3QQZvvAGUR-z7Z-Pk0n-1" value="&lt;font style=&quot;font-size: 21px&quot;&gt;&lt;b&gt;&lt;u&gt;REQUESTABUILDER&lt;/u&gt;&lt;/b&gt;&lt;/font&gt;" style="text;html=1;strokeColor=none;fillColor=none;align=center;verticalAlign=middle;whiteSpace=wrap;rounded=0;" vertex="1" parent="1">
          <mxGeometry x="288" y="20" width="275" height="110" as="geometry" />
        </mxCell>
        <mxCell id="H3QQZvvAGUR-z7Z-Pk0n-6" value="" style="rounded=1;whiteSpace=wrap;html=1;" vertex="1" parent="1">
          <mxGeometry x="120" y="120" width="210" height="390" as="geometry" />
        </mxCell>
        <mxCell id="H3QQZvvAGUR-z7Z-Pk0n-7" value="" style="rounded=1;whiteSpace=wrap;html=1;" vertex="1" parent="1">
          <mxGeometry x="130" y="130" width="210" height="390" as="geometry" />
        </mxCell>
        <mxCell id="H3QQZvvAGUR-z7Z-Pk0n-8" value="" style="rounded=1;whiteSpace=wrap;html=1;" vertex="1" parent="1">
          <mxGeometry x="140" y="140" width="210" height="390" as="geometry" />
        </mxCell>
        <mxCell id="H3QQZvvAGUR-z7Z-Pk0n-9" value="" style="rounded=1;whiteSpace=wrap;html=1;" vertex="1" parent="1">
          <mxGeometry x="150" y="150" width="210" height="390" as="geometry" />
        </mxCell>
        <mxCell id="H3QQZvvAGUR-z7Z-Pk0n-10" value="" style="rounded=1;whiteSpace=wrap;html=1;" vertex="1" parent="1">
          <mxGeometry x="160" y="160" width="210" height="390" as="geometry" />
        </mxCell>
        <mxCell id="H3QQZvvAGUR-z7Z-Pk0n-11" value="" style="rounded=1;whiteSpace=wrap;html=1;" vertex="1" parent="1">
          <mxGeometry x="170" y="170" width="210" height="390" as="geometry" />
        </mxCell>
        <mxCell id="H3QQZvvAGUR-z7Z-Pk0n-12" value="" style="rounded=1;whiteSpace=wrap;html=1;" vertex="1" parent="1">
          <mxGeometry x="180" y="180" width="210" height="390" as="geometry" />
        </mxCell>
        <mxCell id="H3QQZvvAGUR-z7Z-Pk0n-14" value="" style="rounded=1;whiteSpace=wrap;html=1;" vertex="1" parent="1">
          <mxGeometry x="-270" y="1110" width="210" height="390" as="geometry" />
        </mxCell>
        <mxCell id="H3QQZvvAGUR-z7Z-Pk0n-13" value="" style="rounded=1;whiteSpace=wrap;html=1;" vertex="1" parent="1">
          <mxGeometry x="360" y="1130" width="210" height="390" as="geometry" />
        </mxCell>
        <mxCell id="H3QQZvvAGUR-z7Z-Pk0n-15" value="" style="rounded=1;whiteSpace=wrap;html=1;" vertex="1" parent="1">
          <mxGeometry x="380" y="650" width="210" height="390" as="geometry" />
        </mxCell>
        <mxCell id="H3QQZvvAGUR-z7Z-Pk0n-16" value="" style="rounded=1;whiteSpace=wrap;html=1;" vertex="1" parent="1">
          <mxGeometry x="30" y="650" width="210" height="390" as="geometry" />
        </mxCell>
        <mxCell id="H3QQZvvAGUR-z7Z-Pk0n-17" value="" style="rounded=1;whiteSpace=wrap;html=1;" vertex="1" parent="1">
          <mxGeometry x="70" y="810" width="130" height="30" as="geometry" />
        </mxCell>
        <mxCell id="H3QQZvvAGUR-z7Z-Pk0n-18" value="" style="rounded=1;whiteSpace=wrap;html=1;" vertex="1" parent="1">
          <mxGeometry x="480" y="200" width="130" height="30" as="geometry" />
        </mxCell>
        <mxCell id="H3QQZvvAGUR-z7Z-Pk0n-19" value="" style="rounded=1;whiteSpace=wrap;html=1;" vertex="1" parent="1">
          <mxGeometry x="490" y="210" width="130" height="30" as="geometry" />
        </mxCell>
        <mxCell id="H3QQZvvAGUR-z7Z-Pk0n-20" value="" style="rounded=1;whiteSpace=wrap;html=1;" vertex="1" parent="1">
          <mxGeometry x="500" y="220" width="130" height="30" as="geometry" />
        </mxCell>
        <mxCell id="H3QQZvvAGUR-z7Z-Pk0n-21" value="" style="rounded=1;whiteSpace=wrap;html=1;" vertex="1" parent="1">
          <mxGeometry x="510" y="230" width="130" height="30" as="geometry" />
        </mxCell>
        <mxCell id="H3QQZvvAGUR-z7Z-Pk0n-22" value="" style="rounded=1;whiteSpace=wrap;html=1;" vertex="1" parent="1">
          <mxGeometry x="520" y="240" width="130" height="30" as="geometry" />
        </mxCell>
        <mxCell id="H3QQZvvAGUR-z7Z-Pk0n-23" value="" style="rounded=1;whiteSpace=wrap;html=1;" vertex="1" parent="1">
          <mxGeometry x="530" y="250" width="130" height="30" as="geometry" />
        </mxCell>
        <mxCell id="H3QQZvvAGUR-z7Z-Pk0n-24" value="Back" style="rounded=1;whiteSpace=wrap;html=1;" vertex="1" parent="1">
          <mxGeometry x="370" y="1410" width="80" height="30" as="geometry" />
        </mxCell>
        <mxCell id="H3QQZvvAGUR-z7Z-Pk0n-25" value="" style="rounded=1;whiteSpace=wrap;html=1;" vertex="1" parent="1">
          <mxGeometry x="470" y="710" width="120" height="20" as="geometry" />
        </mxCell>
        <mxCell id="H3QQZvvAGUR-z7Z-Pk0n-26" value="" style="rounded=1;whiteSpace=wrap;html=1;" vertex="1" parent="1">
          <mxGeometry x="45" y="1000" width="180" height="30" as="geometry" />
        </mxCell>
        <mxCell id="H3QQZvvAGUR-z7Z-Pk0n-27" value="Generic cell phone stuff" style="rounded=1;whiteSpace=wrap;html=1;" vertex="1" parent="1">
          <mxGeometry x="41.25" y="660" width="187.5" height="10" as="geometry" />
        </mxCell>
        <mxCell id="H3QQZvvAGUR-z7Z-Pk0n-28" value="" style="rounded=1;whiteSpace=wrap;html=1;" vertex="1" parent="1">
          <mxGeometry x="70" y="760" width="130" height="30" as="geometry" />
        </mxCell>
        <mxCell id="H3QQZvvAGUR-z7Z-Pk0n-29" value="Username" style="text;html=1;strokeColor=none;fillColor=none;align=center;verticalAlign=middle;whiteSpace=wrap;rounded=0;" vertex="1" parent="1">
          <mxGeometry x="80" y="765" width="120" height="20" as="geometry" />
        </mxCell>
        <mxCell id="H3QQZvvAGUR-z7Z-Pk0n-30" value="Password" style="text;html=1;strokeColor=none;fillColor=none;align=center;verticalAlign=middle;whiteSpace=wrap;rounded=0;" vertex="1" parent="1">
          <mxGeometry x="75" y="815" width="120" height="20" as="geometry" />
        </mxCell>
        <mxCell id="H3QQZvvAGUR-z7Z-Pk0n-31" value="Sign In" style="rounded=1;whiteSpace=wrap;html=1;" vertex="1" parent="1">
          <mxGeometry x="50" y="870" width="80" height="20" as="geometry" />
        </mxCell>
        <mxCell id="H3QQZvvAGUR-z7Z-Pk0n-32" value="Register" style="rounded=1;whiteSpace=wrap;html=1;" vertex="1" parent="1">
          <mxGeometry x="150" y="870" width="80" height="20" as="geometry" />
        </mxCell>
        <mxCell id="H3QQZvvAGUR-z7Z-Pk0n-35" value="" style="ellipse;whiteSpace=wrap;html=1;aspect=fixed;" vertex="1" parent="1">
          <mxGeometry x="130" y="1010" width="10" height="10" as="geometry" />
        </mxCell>
        <mxCell id="H3QQZvvAGUR-z7Z-Pk0n-36" value="" style="html=1;shadow=0;dashed=0;align=center;verticalAlign=middle;shape=mxgraph.arrows2.arrow;dy=0.6;dx=40;flipH=1;notch=0;" vertex="1" parent="1">
          <mxGeometry x="190" y="1010" width="20" height="10" as="geometry" />
        </mxCell>
        <mxCell id="H3QQZvvAGUR-z7Z-Pk0n-37" value="" style="line;strokeWidth=2;direction=south;html=1;" vertex="1" parent="1">
          <mxGeometry x="70" y="1010" width="10" height="10" as="geometry" />
        </mxCell>
        <mxCell id="H3QQZvvAGUR-z7Z-Pk0n-38" value="" style="line;strokeWidth=2;direction=south;html=1;" vertex="1" parent="1">
          <mxGeometry x="65" y="1010" width="10" height="10" as="geometry" />
        </mxCell>
        <mxCell id="H3QQZvvAGUR-z7Z-Pk0n-39" value="" style="line;strokeWidth=2;direction=south;html=1;" vertex="1" parent="1">
          <mxGeometry x="60" y="1010" width="10" height="10" as="geometry" />
        </mxCell>
        <mxCell id="H3QQZvvAGUR-z7Z-Pk0n-40" value="" style="endArrow=classic;html=1;exitX=1;exitY=0.5;exitDx=0;exitDy=0;entryX=0;entryY=0.5;entryDx=0;entryDy=0;" edge="1" parent="1" source="H3QQZvvAGUR-z7Z-Pk0n-32" target="H3QQZvvAGUR-z7Z-Pk0n-15">
          <mxGeometry width="50" height="50" relative="1" as="geometry">
            <mxPoint x="270" y="910" as="sourcePoint" />
            <mxPoint x="320" y="860" as="targetPoint" />
          </mxGeometry>
        </mxCell>
        <mxCell id="H3QQZvvAGUR-z7Z-Pk0n-42" value="" style="rounded=1;whiteSpace=wrap;html=1;" vertex="1" parent="1">
          <mxGeometry x="470" y="745" width="120" height="20" as="geometry" />
        </mxCell>
        <mxCell id="H3QQZvvAGUR-z7Z-Pk0n-43" value="" style="rounded=1;whiteSpace=wrap;html=1;" vertex="1" parent="1">
          <mxGeometry x="470" y="785" width="120" height="20" as="geometry" />
        </mxCell>
        <mxCell id="H3QQZvvAGUR-z7Z-Pk0n-44" value="" style="rounded=1;whiteSpace=wrap;html=1;" vertex="1" parent="1">
          <mxGeometry x="470" y="820" width="120" height="20" as="geometry" />
        </mxCell>
        <mxCell id="H3QQZvvAGUR-z7Z-Pk0n-45" value="First Name" style="text;html=1;strokeColor=none;fillColor=none;align=center;verticalAlign=middle;whiteSpace=wrap;rounded=0;" vertex="1" parent="1">
          <mxGeometry x="390.5" y="715" width="70" height="10" as="geometry" />
        </mxCell>
        <mxCell id="H3QQZvvAGUR-z7Z-Pk0n-46" value="Last Name" style="text;html=1;strokeColor=none;fillColor=none;align=center;verticalAlign=middle;whiteSpace=wrap;rounded=0;" vertex="1" parent="1">
          <mxGeometry x="390.5" y="745" width="69.5" height="15" as="geometry" />
        </mxCell>
        <mxCell id="H3QQZvvAGUR-z7Z-Pk0n-47" value="Address" style="text;html=1;strokeColor=none;fillColor=none;align=center;verticalAlign=middle;whiteSpace=wrap;rounded=0;" vertex="1" parent="1">
          <mxGeometry x="400" y="785" width="40" height="20" as="geometry" />
        </mxCell>
        <mxCell id="H3QQZvvAGUR-z7Z-Pk0n-48" value="Email" style="text;html=1;strokeColor=none;fillColor=none;align=center;verticalAlign=middle;whiteSpace=wrap;rounded=0;" vertex="1" parent="1">
          <mxGeometry x="390.5" y="820" width="40" height="20" as="geometry" />
        </mxCell>
        <mxCell id="H3QQZvvAGUR-z7Z-Pk0n-49" value="Username" style="text;html=1;strokeColor=none;fillColor=none;align=center;verticalAlign=middle;whiteSpace=wrap;rounded=0;" vertex="1" parent="1">
          <mxGeometry x="400" y="860" width="40" height="20" as="geometry" />
        </mxCell>
        <mxCell id="H3QQZvvAGUR-z7Z-Pk0n-50" value="" style="rounded=1;whiteSpace=wrap;html=1;" vertex="1" parent="1">
          <mxGeometry x="470" y="860" width="120" height="20" as="geometry" />
        </mxCell>
        <mxCell id="H3QQZvvAGUR-z7Z-Pk0n-51" value="Sign Up" style="rounded=1;whiteSpace=wrap;html=1;" vertex="1" parent="1">
          <mxGeometry x="390" y="960" width="80" height="20" as="geometry" />
        </mxCell>
        <mxCell id="H3QQZvvAGUR-z7Z-Pk0n-52" value="Back" style="rounded=1;whiteSpace=wrap;html=1;" vertex="1" parent="1">
          <mxGeometry x="500" y="960" width="80" height="20" as="geometry" />
        </mxCell>
        <mxCell id="H3QQZvvAGUR-z7Z-Pk0n-53" value="Required" style="text;html=1;align=center;verticalAlign=middle;resizable=0;points=[];autosize=1;strokeColor=none;" vertex="1" parent="1">
          <mxGeometry x="600" y="710" width="60" height="20" as="geometry" />
        </mxCell>
        <mxCell id="H3QQZvvAGUR-z7Z-Pk0n-54" value="Required" style="text;html=1;align=center;verticalAlign=middle;resizable=0;points=[];autosize=1;strokeColor=none;" vertex="1" parent="1">
          <mxGeometry x="600" y="815" width="60" height="20" as="geometry" />
        </mxCell>
        <mxCell id="H3QQZvvAGUR-z7Z-Pk0n-55" value="Required" style="text;html=1;align=center;verticalAlign=middle;resizable=0;points=[];autosize=1;strokeColor=none;" vertex="1" parent="1">
          <mxGeometry x="600" y="780" width="60" height="20" as="geometry" />
        </mxCell>
        <mxCell id="H3QQZvvAGUR-z7Z-Pk0n-56" value="Required" style="text;html=1;align=center;verticalAlign=middle;resizable=0;points=[];autosize=1;strokeColor=none;" vertex="1" parent="1">
          <mxGeometry x="600" y="750" width="60" height="20" as="geometry" />
        </mxCell>
        <mxCell id="H3QQZvvAGUR-z7Z-Pk0n-57" value="Not required since could use email as username" style="text;html=1;align=center;verticalAlign=middle;resizable=0;points=[];autosize=1;strokeColor=none;" vertex="1" parent="1">
          <mxGeometry x="600" y="860" width="270" height="20" as="geometry" />
        </mxCell>
        <mxCell id="H3QQZvvAGUR-z7Z-Pk0n-58" value="" style="rounded=1;whiteSpace=wrap;html=1;" vertex="1" parent="1">
          <mxGeometry x="470" y="890" width="120" height="20" as="geometry" />
        </mxCell>
        <mxCell id="H3QQZvvAGUR-z7Z-Pk0n-59" value="Password" style="text;html=1;strokeColor=none;fillColor=none;align=center;verticalAlign=middle;whiteSpace=wrap;rounded=0;" vertex="1" parent="1">
          <mxGeometry x="400" y="890" width="40" height="20" as="geometry" />
        </mxCell>
        <mxCell id="H3QQZvvAGUR-z7Z-Pk0n-60" value="Required" style="text;html=1;align=center;verticalAlign=middle;resizable=0;points=[];autosize=1;strokeColor=none;" vertex="1" parent="1">
          <mxGeometry x="600" y="890" width="60" height="20" as="geometry" />
        </mxCell>
        <mxCell id="H3QQZvvAGUR-z7Z-Pk0n-61" value="Re-enter Pass" style="text;html=1;strokeColor=none;fillColor=none;align=center;verticalAlign=middle;whiteSpace=wrap;rounded=0;" vertex="1" parent="1">
          <mxGeometry x="380.5" y="920" width="79.5" height="20" as="geometry" />
        </mxCell>
        <mxCell id="H3QQZvvAGUR-z7Z-Pk0n-62" value="" style="rounded=1;whiteSpace=wrap;html=1;" vertex="1" parent="1">
          <mxGeometry x="470" y="930" width="120" height="20" as="geometry" />
        </mxCell>
        <mxCell id="H3QQZvvAGUR-z7Z-Pk0n-63" value="" style="endArrow=none;html=1;entryX=0.5;entryY=1;entryDx=0;entryDy=0;" edge="1" parent="1" target="H3QQZvvAGUR-z7Z-Pk0n-51">
          <mxGeometry width="50" height="50" relative="1" as="geometry">
            <mxPoint x="480" y="1070" as="sourcePoint" />
            <mxPoint x="435.5" y="990" as="targetPoint" />
          </mxGeometry>
        </mxCell>
        <mxCell id="H3QQZvvAGUR-z7Z-Pk0n-64" value="" style="endArrow=none;html=1;entryX=0.5;entryY=1;entryDx=0;entryDy=0;" edge="1" parent="1" target="H3QQZvvAGUR-z7Z-Pk0n-52">
          <mxGeometry width="50" height="50" relative="1" as="geometry">
            <mxPoint x="480" y="1070" as="sourcePoint" />
            <mxPoint x="540" y="1020" as="targetPoint" />
          </mxGeometry>
        </mxCell>
        <mxCell id="H3QQZvvAGUR-z7Z-Pk0n-66" value="" style="endArrow=none;html=1;" edge="1" parent="1">
          <mxGeometry width="50" height="50" relative="1" as="geometry">
            <mxPoint x="481" y="1120" as="sourcePoint" />
            <mxPoint x="480.5" y="1070" as="targetPoint" />
          </mxGeometry>
        </mxCell>
        <mxCell id="H3QQZvvAGUR-z7Z-Pk0n-67" value="" style="endArrow=none;html=1;" edge="1" parent="1">
          <mxGeometry width="50" height="50" relative="1" as="geometry">
            <mxPoint x="140" y="1120" as="sourcePoint" />
            <mxPoint x="480" y="1120" as="targetPoint" />
          </mxGeometry>
        </mxCell>
        <mxCell id="H3QQZvvAGUR-z7Z-Pk0n-68" value="" style="endArrow=classic;html=1;entryX=0.533;entryY=1.008;entryDx=0;entryDy=0;entryPerimeter=0;" edge="1" parent="1" target="H3QQZvvAGUR-z7Z-Pk0n-16">
          <mxGeometry width="50" height="50" relative="1" as="geometry">
            <mxPoint x="140" y="1120" as="sourcePoint" />
            <mxPoint x="190" y="1060" as="targetPoint" />
          </mxGeometry>
        </mxCell>
        <mxCell id="H3QQZvvAGUR-z7Z-Pk0n-69" value="" style="endArrow=none;html=1;entryX=0;entryY=0.5;entryDx=0;entryDy=0;" edge="1" parent="1" target="H3QQZvvAGUR-z7Z-Pk0n-31">
          <mxGeometry width="50" height="50" relative="1" as="geometry">
            <mxPoint x="-160" y="880" as="sourcePoint" />
            <mxPoint x="10" y="880" as="targetPoint" />
          </mxGeometry>
        </mxCell>
        <mxCell id="H3QQZvvAGUR-z7Z-Pk0n-70" value="" style="endArrow=classic;html=1;entryX=0.5;entryY=0;entryDx=0;entryDy=0;" edge="1" parent="1" target="H3QQZvvAGUR-z7Z-Pk0n-14">
          <mxGeometry width="50" height="50" relative="1" as="geometry">
            <mxPoint x="-160" y="880" as="sourcePoint" />
            <mxPoint x="-165" y="1060" as="targetPoint" />
          </mxGeometry>
        </mxCell>
        <mxCell id="H3QQZvvAGUR-z7Z-Pk0n-71" value="" style="rounded=1;whiteSpace=wrap;html=1;" vertex="1" parent="1">
          <mxGeometry x="400" y="1000" width="180" height="30" as="geometry" />
        </mxCell>
        <mxCell id="H3QQZvvAGUR-z7Z-Pk0n-72" value="" style="html=1;shadow=0;dashed=0;align=center;verticalAlign=middle;shape=mxgraph.arrows2.arrow;dy=0.6;dx=40;flipH=1;notch=0;" vertex="1" parent="1">
          <mxGeometry x="545" y="1010" width="20" height="10" as="geometry" />
        </mxCell>
        <mxCell id="H3QQZvvAGUR-z7Z-Pk0n-73" value="" style="ellipse;whiteSpace=wrap;html=1;aspect=fixed;" vertex="1" parent="1">
          <mxGeometry x="480" y="1010" width="10" height="10" as="geometry" />
        </mxCell>
        <mxCell id="H3QQZvvAGUR-z7Z-Pk0n-74" value="" style="line;strokeWidth=2;direction=south;html=1;" vertex="1" parent="1">
          <mxGeometry x="420" y="1010" width="10" height="10" as="geometry" />
        </mxCell>
        <mxCell id="H3QQZvvAGUR-z7Z-Pk0n-75" value="" style="line;strokeWidth=2;direction=south;html=1;" vertex="1" parent="1">
          <mxGeometry x="425" y="1010" width="10" height="10" as="geometry" />
        </mxCell>
        <mxCell id="H3QQZvvAGUR-z7Z-Pk0n-76" value="" style="line;strokeWidth=2;direction=south;html=1;" vertex="1" parent="1">
          <mxGeometry x="415" y="1010" width="10" height="10" as="geometry" />
        </mxCell>
        <mxCell id="H3QQZvvAGUR-z7Z-Pk0n-77" value="" style="shape=actor;whiteSpace=wrap;html=1;" vertex="1" parent="1">
          <mxGeometry x="-100" y="1120" width="20" height="20" as="geometry" />
        </mxCell>
        <mxCell id="H3QQZvvAGUR-z7Z-Pk0n-79" value="" style="endArrow=none;html=1;exitX=1;exitY=0.75;exitDx=0;exitDy=0;" edge="1" parent="1" source="H3QQZvvAGUR-z7Z-Pk0n-77">
          <mxGeometry width="50" height="50" relative="1" as="geometry">
            <mxPoint x="-20" y="1180" as="sourcePoint" />
            <mxPoint x="50" y="1135" as="targetPoint" />
          </mxGeometry>
        </mxCell>
        <mxCell id="H3QQZvvAGUR-z7Z-Pk0n-80" value="" style="endArrow=classic;html=1;" edge="1" parent="1">
          <mxGeometry width="50" height="50" relative="1" as="geometry">
            <mxPoint x="50" y="1130" as="sourcePoint" />
            <mxPoint x="50" y="1180" as="targetPoint" />
          </mxGeometry>
        </mxCell>
        <mxCell id="H3QQZvvAGUR-z7Z-Pk0n-81" value="" style="rounded=0;whiteSpace=wrap;html=1;" vertex="1" parent="1">
          <mxGeometry y="1180" width="120" height="130" as="geometry" />
        </mxCell>
        <mxCell id="H3QQZvvAGUR-z7Z-Pk0n-82" value="Home" style="text;strokeColor=none;fillColor=none;html=1;fontSize=24;fontStyle=1;verticalAlign=middle;align=center;" vertex="1" parent="1">
          <mxGeometry x="-260" y="1060" width="100" height="40" as="geometry" />
        </mxCell>
        <mxCell id="H3QQZvvAGUR-z7Z-Pk0n-83" value="Register" style="text;strokeColor=none;fillColor=none;html=1;fontSize=24;fontStyle=1;verticalAlign=middle;align=center;" vertex="1" parent="1">
          <mxGeometry x="440" y="605" width="100" height="40" as="geometry" />
        </mxCell>
        <mxCell id="H3QQZvvAGUR-z7Z-Pk0n-84" value="Login" style="text;strokeColor=none;fillColor=none;html=1;fontSize=24;fontStyle=1;verticalAlign=middle;align=center;" vertex="1" parent="1">
          <mxGeometry x="85" y="610" width="100" height="35" as="geometry" />
        </mxCell>
        <mxCell id="H3QQZvvAGUR-z7Z-Pk0n-86" value="User Info" style="text;strokeColor=none;fillColor=none;html=1;fontSize=24;fontStyle=1;verticalAlign=middle;align=center;" vertex="1" parent="1">
          <mxGeometry x="-60" y="1090" width="100" height="40" as="geometry" />
        </mxCell>
        <mxCell id="H3QQZvvAGUR-z7Z-Pk0n-87" value="Logout" style="text;html=1;strokeColor=none;fillColor=none;align=center;verticalAlign=middle;whiteSpace=wrap;rounded=0;" vertex="1" parent="1">
          <mxGeometry x="40" y="1180" width="40" height="20" as="geometry" />
        </mxCell>
        <mxCell id="H3QQZvvAGUR-z7Z-Pk0n-88" value="Profile" style="text;html=1;strokeColor=none;fillColor=none;align=center;verticalAlign=middle;whiteSpace=wrap;rounded=0;" vertex="1" parent="1">
          <mxGeometry x="41.25" y="1210" width="40" height="20" as="geometry" />
        </mxCell>
        <mxCell id="H3QQZvvAGUR-z7Z-Pk0n-89" value="Settings" style="text;html=1;strokeColor=none;fillColor=none;align=center;verticalAlign=middle;whiteSpace=wrap;rounded=0;" vertex="1" parent="1">
          <mxGeometry x="41.25" y="1250" width="40" height="20" as="geometry" />
        </mxCell>
        <mxCell id="H3QQZvvAGUR-z7Z-Pk0n-91" value="" style="endArrow=none;html=1;exitX=1;exitY=0.5;exitDx=0;exitDy=0;" edge="1" parent="1" source="H3QQZvvAGUR-z7Z-Pk0n-87">
          <mxGeometry width="50" height="50" relative="1" as="geometry">
            <mxPoint x="130" y="1189.5" as="sourcePoint" />
            <mxPoint x="140" y="1190" as="targetPoint" />
          </mxGeometry>
        </mxCell>
        <mxCell id="H3QQZvvAGUR-z7Z-Pk0n-92" value="" style="endArrow=none;html=1;exitX=1;exitY=0.5;exitDx=0;exitDy=0;" edge="1" parent="1">
          <mxGeometry width="50" height="50" relative="1" as="geometry">
            <mxPoint x="140" y="1189" as="sourcePoint" />
            <mxPoint x="140" y="1120" as="targetPoint" />
          </mxGeometry>
        </mxCell>
        <mxCell id="H3QQZvvAGUR-z7Z-Pk0n-93" value="" style="endArrow=none;html=1;exitX=1;exitY=0.5;exitDx=0;exitDy=0;" edge="1" parent="1" source="H3QQZvvAGUR-z7Z-Pk0n-88">
          <mxGeometry width="50" height="50" relative="1" as="geometry">
            <mxPoint x="140" y="1219.5" as="sourcePoint" />
            <mxPoint x="200" y="1219.5" as="targetPoint" />
          </mxGeometry>
        </mxCell>
        <mxCell id="H3QQZvvAGUR-z7Z-Pk0n-94" value="" style="endArrow=classic;html=1;entryX=0.01;entryY=0.228;entryDx=0;entryDy=0;entryPerimeter=0;" edge="1" parent="1" target="H3QQZvvAGUR-z7Z-Pk0n-13">
          <mxGeometry width="50" height="50" relative="1" as="geometry">
            <mxPoint x="200" y="1220" as="sourcePoint" />
            <mxPoint x="330" y="1220" as="targetPoint" />
          </mxGeometry>
        </mxCell>
        <mxCell id="H3QQZvvAGUR-z7Z-Pk0n-95" value="Profile" style="text;strokeColor=none;fillColor=none;html=1;fontSize=24;fontStyle=1;verticalAlign=middle;align=center;" vertex="1" parent="1">
          <mxGeometry x="580" y="1150" width="100" height="40" as="geometry" />
        </mxCell>
        <mxCell id="H3QQZvvAGUR-z7Z-Pk0n-97" value="" style="ellipse;whiteSpace=wrap;html=1;aspect=fixed;" vertex="1" parent="1">
          <mxGeometry x="375.5" y="1150" width="70" height="70" as="geometry" />
        </mxCell>
        <mxCell id="H3QQZvvAGUR-z7Z-Pk0n-98" value="" style="shape=actor;whiteSpace=wrap;html=1;" vertex="1" parent="1">
          <mxGeometry x="395" y="1165" width="30" height="40" as="geometry" />
        </mxCell>
        <mxCell id="H3QQZvvAGUR-z7Z-Pk0n-99" value="Upload Photo" style="rounded=1;whiteSpace=wrap;html=1;" vertex="1" parent="1">
          <mxGeometry x="450" y="1170" width="100" height="30" as="geometry" />
        </mxCell>
        <mxCell id="H3QQZvvAGUR-z7Z-Pk0n-100" value="Name" style="text;html=1;strokeColor=none;fillColor=none;align=center;verticalAlign=middle;whiteSpace=wrap;rounded=0;" vertex="1" parent="1">
          <mxGeometry x="375" y="1260" width="70" height="20" as="geometry" />
        </mxCell>
        <mxCell id="H3QQZvvAGUR-z7Z-Pk0n-101" value="Address" style="text;html=1;strokeColor=none;fillColor=none;align=center;verticalAlign=middle;whiteSpace=wrap;rounded=0;" vertex="1" parent="1">
          <mxGeometry x="380.5" y="1295" width="70" height="20" as="geometry" />
        </mxCell>
        <mxCell id="H3QQZvvAGUR-z7Z-Pk0n-102" value="Email" style="text;html=1;strokeColor=none;fillColor=none;align=center;verticalAlign=middle;whiteSpace=wrap;rounded=0;" vertex="1" parent="1">
          <mxGeometry x="375.5" y="1320" width="70" height="20" as="geometry" />
        </mxCell>
        <mxCell id="H3QQZvvAGUR-z7Z-Pk0n-103" value="Username" style="text;html=1;strokeColor=none;fillColor=none;align=center;verticalAlign=middle;whiteSpace=wrap;rounded=0;" vertex="1" parent="1">
          <mxGeometry x="385.25" y="1350" width="70" height="20" as="geometry" />
        </mxCell>
        <mxCell id="H3QQZvvAGUR-z7Z-Pk0n-104" value="" style="rounded=1;whiteSpace=wrap;html=1;" vertex="1" parent="1">
          <mxGeometry x="460" y="1260" width="95" height="20" as="geometry" />
        </mxCell>
        <mxCell id="H3QQZvvAGUR-z7Z-Pk0n-105" value="" style="rounded=1;whiteSpace=wrap;html=1;" vertex="1" parent="1">
          <mxGeometry x="460" y="1290" width="95" height="20" as="geometry" />
        </mxCell>
        <mxCell id="H3QQZvvAGUR-z7Z-Pk0n-106" value="" style="rounded=1;whiteSpace=wrap;html=1;" vertex="1" parent="1">
          <mxGeometry x="460.5" y="1320" width="95" height="20" as="geometry" />
        </mxCell>
        <mxCell id="H3QQZvvAGUR-z7Z-Pk0n-107" value="" style="rounded=1;whiteSpace=wrap;html=1;" vertex="1" parent="1">
          <mxGeometry x="460" y="1350" width="95" height="20" as="geometry" />
        </mxCell>
        <mxCell id="H3QQZvvAGUR-z7Z-Pk0n-108" value="Save" style="rounded=1;whiteSpace=wrap;html=1;" vertex="1" parent="1">
          <mxGeometry x="475" y="1410" width="80" height="30" as="geometry" />
        </mxCell>
        <mxCell id="H3QQZvvAGUR-z7Z-Pk0n-109" value="" style="endArrow=none;html=1;" edge="1" parent="1">
          <mxGeometry width="50" height="50" relative="1" as="geometry">
            <mxPoint x="410" y="1560" as="sourcePoint" />
            <mxPoint x="410" y="1440" as="targetPoint" />
          </mxGeometry>
        </mxCell>
        <mxCell id="H3QQZvvAGUR-z7Z-Pk0n-111" value="Go back to last page, can also implement back arrow" style="text;html=1;strokeColor=none;fillColor=none;align=center;verticalAlign=middle;whiteSpace=wrap;rounded=0;" vertex="1" parent="1">
          <mxGeometry x="270" y="1540" width="220" height="60" as="geometry" />
        </mxCell>
        <mxCell id="H3QQZvvAGUR-z7Z-Pk0n-112" value="" style="endArrow=none;html=1;entryX=1;entryY=0.5;entryDx=0;entryDy=0;" edge="1" parent="1" target="H3QQZvvAGUR-z7Z-Pk0n-108">
          <mxGeometry width="50" height="50" relative="1" as="geometry">
            <mxPoint x="660" y="1425" as="sourcePoint" />
            <mxPoint x="620" y="1440" as="targetPoint" />
          </mxGeometry>
        </mxCell>
        <mxCell id="H3QQZvvAGUR-z7Z-Pk0n-114" value="" style="endArrow=none;html=1;" edge="1" parent="1">
          <mxGeometry width="50" height="50" relative="1" as="geometry">
            <mxPoint x="659" y="1370" as="sourcePoint" />
            <mxPoint x="659" y="1430.5" as="targetPoint" />
          </mxGeometry>
        </mxCell>
      </root>
    </mxGraphModel>
  </diagram>
</mxfile>
